<svg version="1.1" xmlns="http://www.w3.org/2000/svg" viewBox="0 0 517.1786635930968 280.03071353757923" width="517.1786635930968" height="280.03071353757923">
  <!-- svg-source:excalidraw -->
  
  <defs>
    <style class="style-fonts">
      @font-face {
        font-family: "Virgil";
        src: url("https://excalidraw.com/Virgil.woff2");
      }
      @font-face {
        font-family: "Cascadia";
        src: url("https://excalidraw.com/Cascadia.woff2");
      }
      @font-face {
        font-family: "Assistant";
        src: url("https://excalidraw.com/Assistant-Regular.woff2");
      }
    </style>
    
  </defs>
  <rect x="0" y="0" width="517.1786635930968" height="280.03071353757923" fill="#ffffff"></rect><g stroke-linecap="round" transform="translate(13.46711807997616 13.467086337949581) rotate(0 79.39601368022434 24.269540881593784)"><path d="M12.13 0 C64.28 -1.07, 122.08 0.89, 146.66 0 C151.22 -0.15, 161.2 6.18, 158.79 12.13 C157.12 23.41, 155.13 30.93, 158.79 36.4 C160.08 44.34, 154.68 51.42, 146.66 48.54 C98.21 49.15, 57.93 45.97, 12.13 48.54 C6.29 51.57, 1.29 47.18, 0 36.4 C1.91 30.78, 0.58 17.69, 0 12.13 C-0.82 3.63, 4.48 -0.06, 12.13 0" stroke="none" stroke-width="0" fill="#ffec99"></path><path d="M12.13 0 C42.2 -1.21, 73.96 -0.34, 146.66 0 M12.13 0 C57.05 1.84, 100.75 1.34, 146.66 0 M146.66 0 C154.17 1.63, 156.9 3.48, 158.79 12.13 M146.66 0 C152.83 0.58, 158.02 4.08, 158.79 12.13 M158.79 12.13 C158.02 17.83, 157.67 22.85, 158.79 36.4 M158.79 12.13 C157.85 19.86, 158.61 27.59, 158.79 36.4 M158.79 36.4 C159.5 45.05, 155.66 50.26, 146.66 48.54 M158.79 36.4 C157.9 46.37, 153.15 50.37, 146.66 48.54 M146.66 48.54 C121.62 50.37, 94.34 49.44, 12.13 48.54 M146.66 48.54 C105.96 50.54, 66.64 49.66, 12.13 48.54 M12.13 48.54 C3.99 50.46, -1.2 44.23, 0 36.4 M12.13 48.54 C4.9 50.07, -0.49 45.62, 0 36.4 M0 36.4 C1.68 31.61, -0.73 23.8, 0 12.13 M0 36.4 C-0.08 29, -1.01 22.17, 0 12.13 M0 12.13 C-0.63 2.91, 2.36 1.66, 12.13 0 M0 12.13 C0.12 2.21, 4.61 -0.86, 12.13 0" stroke="#1e1e1e" stroke-width="2" fill="none"></path></g><g transform="translate(40.863162277778656 24.735093129765716) rotate(0 51.999969482421875 13.001534089777635)"><text x="51.999969482421875" y="18.22295018023233" font-family="Virgil, Segoe UI Emoji" font-size="20.802454543644213px" fill="#1e1e1e" text-anchor="middle" style="white-space: pre;" direction="ltr" dominant-baseline="alphabetic">程序计数器</text></g><g stroke-linecap="round" transform="translate(14.853831995454982 74.83432724170001) rotate(0 78.70264085147167 20.802454543644217)"><path d="M10.4 0 C42.65 -1.79, 71.3 -0.31, 147 0 C153 -0.04, 155.8 0.86, 157.41 10.4 C156.87 17.21, 159.98 24.5, 157.41 31.2 C157.85 34.83, 156.87 44.24, 147 41.6 C114.79 41.98, 78.09 38.04, 10.4 41.6 C0.6 43.89, -0.58 41.61, 0 31.2 C0.93 26.57, 0.26 16.06, 0 10.4 C3.13 5.01, 4.01 2.81, 10.4 0" stroke="none" stroke-width="0" fill="#ffec99"></path><path d="M10.4 0 C40.42 0.12, 70.66 -0.48, 147 0 M10.4 0 C58.13 0.04, 108.2 -0.35, 147 0 M147 0 C152.25 0.86, 156.62 4.21, 157.41 10.4 M147 0 C153.49 -1.68, 155.11 4.9, 157.41 10.4 M157.41 10.4 C155.91 18.23, 158.22 24.84, 157.41 31.2 M157.41 10.4 C158.17 15.78, 157.16 22.26, 157.41 31.2 M157.41 31.2 C156.65 37.2, 152.6 40.52, 147 41.6 M157.41 31.2 C155.48 36.43, 151.9 42.26, 147 41.6 M147 41.6 C105.52 39.9, 67.32 40.12, 10.4 41.6 M147 41.6 C92.26 42.15, 38.22 43.42, 10.4 41.6 M10.4 41.6 C3.5 40.63, -1.15 39.88, 0 31.2 M10.4 41.6 C5 39.8, -0.2 36.57, 0 31.2 M0 31.2 C-1.38 23.03, 0.97 17.84, 0 10.4 M0 31.2 C-0.49 25.17, -0.19 18.3, 0 10.4 M0 10.4 C-0.83 1.71, 5.14 -0.99, 10.4 0 M0 10.4 C1.77 2.04, 1.58 1.14, 10.4 0" stroke="#1e1e1e" stroke-width="2" fill="none"></path></g><g transform="translate(26.05010993188762 82.63524769556659) rotate(0 67.50636291503906 13.001534089777635)"><text x="67.50636291503906" y="18.22295018023233" font-family="Virgil, Segoe UI Emoji" font-size="20.802454543644213px" fill="#1e1e1e" text-anchor="middle" style="white-space: pre;" direction="ltr" dominant-baseline="alphabetic">Java虚拟机栈</text></g><g stroke-linecap="round" transform="translate(16.240704621066698 128.92072492618829) rotate(0 78.35592269506873 20.9757977508324)"><path d="M10.49 0 C52.51 -3.38, 90.68 1.83, 146.22 0 C156.6 1.73, 157.46 2.76, 156.71 10.49 C158.76 16.03, 158.15 16.34, 156.71 31.46 C158.51 40.99, 156.11 45.09, 146.22 41.95 C98.2 39.67, 58.09 41.35, 10.49 41.95 C0.69 39.37, -1.54 41.73, 0 31.46 C-2.41 29.11, 0.36 24.77, 0 10.49 C-2.03 0.46, 1.96 3.22, 10.49 0" stroke="none" stroke-width="0" fill="#ffec99"></path><path d="M10.49 0 C54.73 0.48, 96.15 -1.95, 146.22 0 M10.49 0 C61.84 -0.09, 114.15 1.54, 146.22 0 M146.22 0 C151.31 -0.74, 155.12 4.76, 156.71 10.49 M146.22 0 C152.85 2.22, 157.96 1.64, 156.71 10.49 M156.71 10.49 C156.72 15.17, 158.49 21.16, 156.71 31.46 M156.71 10.49 C156.96 17.43, 157.17 23.51, 156.71 31.46 M156.71 31.46 C157.2 39.9, 152.58 41.81, 146.22 41.95 M156.71 31.46 C155.28 36.24, 151.25 40.3, 146.22 41.95 M146.22 41.95 C106.69 42.42, 66.54 41.76, 10.49 41.95 M146.22 41.95 C115.88 41.57, 84.36 41.03, 10.49 41.95 M10.49 41.95 C3.31 42.56, 0.38 40.09, 0 31.46 M10.49 41.95 C5.42 42.94, -1.27 39.64, 0 31.46 M0 31.46 C-1.77 27.83, 1.16 22.19, 0 10.49 M0 31.46 C0.59 24.39, 0.07 17.37, 0 10.49 M0 10.49 C1.98 5.37, 1.92 -0.06, 10.49 0 M0 10.49 C-1.37 2.98, 4.74 -1.68, 10.49 0" stroke="#1e1e1e" stroke-width="2" fill="none"></path></g><g transform="translate(42.59665783371355 136.89498858724306) rotate(0 51.999969482421875 13.001534089777635)"><text x="51.999969482421875" y="18.22295018023233" font-family="Virgil, Segoe UI Emoji" font-size="20.802454543644213px" fill="#1e1e1e" text-anchor="middle" style="white-space: pre;" direction="ltr" dominant-baseline="alphabetic">本地方法栈</text></g><g stroke-linecap="round" transform="translate(182.66037271224707 10) rotate(0 160.52564988449 79.74273183662731)"><path d="M32 0 C93.74 -1.08, 157.5 0.06, 289.05 0 C313.13 1.41, 317.68 8.57, 321.05 32 C322.62 57.62, 322.91 77.69, 321.05 127.49 C318.71 145.91, 310.16 161.81, 289.05 159.49 C211.53 162, 138.15 164.99, 32 159.49 C8.38 158.21, -1.41 149.14, 0 127.49 C-1.41 93.07, -4.19 65.64, 0 32 C-0.22 7.94, 12.65 -2.08, 32 0" stroke="none" stroke-width="0" fill="#a5d8ff"></path><path d="M32 0 C92.99 -2.48, 153.86 -3.06, 289.05 0 M32 0 C121.44 1.71, 211.34 2.12, 289.05 0 M289.05 0 C309.6 0.37, 319.2 10.86, 321.05 32 M289.05 0 C308.7 -0.28, 321.92 10.96, 321.05 32 M321.05 32 C320.02 57.2, 322.52 86.51, 321.05 127.49 M321.05 32 C322.32 52.06, 322.72 71.1, 321.05 127.49 M321.05 127.49 C320.19 148.1, 310.13 158.09, 289.05 159.49 M321.05 127.49 C322.3 149.77, 310.97 159.48, 289.05 159.49 M289.05 159.49 C224.81 162.7, 156.47 161.07, 32 159.49 M289.05 159.49 C216.45 160.16, 144.76 160.75, 32 159.49 M32 159.49 C8.68 161.05, -0.01 150.07, 0 127.49 M32 159.49 C10.83 158.07, -0.11 148.71, 0 127.49 M0 127.49 C0.19 90.81, -0.63 54.23, 0 32 M0 127.49 C-0.56 104.65, 0.86 84.18, 0 32 M0 32 C-1.4 9.88, 11.87 -0.11, 32 0 M0 32 C-0.05 11.52, 10.08 -2.11, 32 0" stroke="#1e1e1e" stroke-width="2" fill="none"></path></g><g stroke-linecap="round" transform="translate(270.03074527960575 105.73347447576387) rotate(0 73.84871362993698 19.91461497817653)"><path d="M9.96 0 C43.8 1.14, 82.73 -1.14, 137.74 0 C144.96 -1.69, 147.88 5.26, 147.7 9.96 C145.2 14.95, 146.01 20.86, 147.7 29.87 C146.51 32.94, 146.95 43.35, 137.74 39.83 C99.96 42.13, 64.38 41.94, 9.96 39.83 C3.02 40.46, -1.31 38.97, 0 29.87 C2.7 21.14, 1.82 18.03, 0 9.96 C-3.42 0.79, 6.05 -0.34, 9.96 0" stroke="none" stroke-width="0" fill="#96f2d7"></path><path d="M9.96 0 C50.18 2.01, 94.85 2.59, 137.74 0 M9.96 0 C43.49 1.22, 77.6 0.12, 137.74 0 M137.74 0 C144.68 1.43, 148.86 1.37, 147.7 9.96 M137.74 0 C143.58 0.88, 147.08 3.87, 147.7 9.96 M147.7 9.96 C149.07 18.43, 148.51 24.43, 147.7 29.87 M147.7 9.96 C147.95 16.88, 147.6 24.59, 147.7 29.87 M147.7 29.87 C146.35 36.91, 143.3 38.1, 137.74 39.83 M147.7 29.87 C147.37 34.34, 144.78 39.92, 137.74 39.83 M137.74 39.83 C95.39 41.42, 50.86 40.89, 9.96 39.83 M137.74 39.83 C100.81 39.85, 63.74 40.6, 9.96 39.83 M9.96 39.83 C3.79 40.13, 0.66 37.53, 0 29.87 M9.96 39.83 C4.07 39.27, 1.68 36.54, 0 29.87 M0 29.87 C1.16 27.49, 1 23.51, 0 9.96 M0 29.87 C-0.01 23.44, -0.71 15.86, 0 9.96 M0 9.96 C0.61 3.55, 4.76 -1.47, 9.96 0 M0 9.96 C-0.32 5.55, 4.85 1.95, 9.96 0" stroke="#1e1e1e" stroke-width="2" fill="none"></path></g><g transform="translate(302.2794833236053 112.64655536416277) rotate(0 41.5999755859375 13.001534089777635)"><text x="41.5999755859375" y="18.22295018023233" font-family="Virgil, Segoe UI Emoji" font-size="20.802454543644213px" fill="#1e1e1e" text-anchor="middle" style="white-space: pre;" direction="ltr" dominant-baseline="alphabetic">静态变量</text></g><g stroke-linecap="round" transform="translate(269.6839953811764 25.12393137711595) rotate(0 73.84871362993698 19.91461497817653)"><path d="M9.96 0 C42.83 -1.09, 77.7 -1.47, 137.74 0 C147.67 -1.83, 150.93 4.29, 147.7 9.96 C148.45 20.4, 148.23 23.22, 147.7 29.87 C144.4 34.12, 144.6 39.46, 137.74 39.83 C102.69 40.95, 68.63 38.23, 9.96 39.83 C6.52 36.99, -1.38 37.07, 0 29.87 C-1.18 22.51, -0.58 19.16, 0 9.96 C3.57 5.94, 1.46 0.08, 9.96 0" stroke="none" stroke-width="0" fill="#b2f2bb"></path><path d="M9.96 0 C55.76 -2.41, 101.64 -2.36, 137.74 0 M9.96 0 C50.89 -1.03, 94.15 -1.97, 137.74 0 M137.74 0 C145.36 1.44, 147.42 3.24, 147.7 9.96 M137.74 0 C145.63 -1.64, 149.29 2.02, 147.7 9.96 M147.7 9.96 C148.09 16.48, 147.88 25.24, 147.7 29.87 M147.7 9.96 C147.08 14.96, 147.48 18.55, 147.7 29.87 M147.7 29.87 C148.12 36.33, 142.82 38.13, 137.74 39.83 M147.7 29.87 C149.83 37.33, 145.29 38.09, 137.74 39.83 M137.74 39.83 C99.98 41.44, 63.67 41.16, 9.96 39.83 M137.74 39.83 C106.42 38.17, 76.94 37.96, 9.96 39.83 M9.96 39.83 C3.29 41.02, -0.7 37.42, 0 29.87 M9.96 39.83 C1.67 40.35, 0.99 36.64, 0 29.87 M0 29.87 C1.35 24.65, 1.47 15.8, 0 9.96 M0 29.87 C-0.34 24.73, -0.08 19.79, 0 9.96 M0 9.96 C1.35 1.49, 4.77 0.23, 9.96 0 M0 9.96 C-2.1 5.39, 1.83 -1.25, 9.96 0" stroke="#1e1e1e" stroke-width="2" fill="none"></path></g><g transform="translate(281.13274563220716 32.037012265514846) rotate(0 62.39996337890625 13.001534089777635)"><text x="62.39996337890625" y="18.22295018023233" font-family="Virgil, Segoe UI Emoji" font-size="20.802454543644213px" fill="#1e1e1e" text-anchor="middle" style="white-space: pre;" direction="ltr" dominant-baseline="alphabetic">字符串常量池</text></g><g stroke-linecap="round" transform="translate(10 181.96696814146765) rotate(0 248.58933179654838 44.03187269805579)"><path d="M22.02 0 C198.17 2.27, 373.81 2.55, 475.16 0 C489.8 -2.06, 493.87 6.47, 497.18 22.02 C498.13 41.43, 499.33 54.58, 497.18 66.05 C498.38 83.64, 492.14 90.37, 475.16 88.06 C361.26 87.88, 249.88 87.86, 22.02 88.06 C10.16 87.99, 2.54 83.27, 0 66.05 C-2 50.77, 1.1 36.03, 0 22.02 C1.78 3.75, 4.6 1.28, 22.02 0" stroke="none" stroke-width="0" fill="#ffd8a8"></path><path d="M22.02 0 C130.42 0.99, 236.43 0.32, 475.16 0 M22.02 0 C140.87 0.72, 258.99 0.28, 475.16 0 M475.16 0 C489.35 -0.86, 497.75 8.1, 497.18 22.02 M475.16 0 C491.81 1.69, 498.76 7.83, 497.18 22.02 M497.18 22.02 C495.91 36.48, 498.1 51.52, 497.18 66.05 M497.18 22.02 C497.99 35.28, 498.2 46.23, 497.18 66.05 M497.18 66.05 C495.78 81.53, 488.14 88.43, 475.16 88.06 M497.18 66.05 C495.42 79.07, 487.9 86.95, 475.16 88.06 M475.16 88.06 C332.45 88.56, 189.5 88.94, 22.02 88.06 M475.16 88.06 C300.14 87.21, 125.77 86.91, 22.02 88.06 M22.02 88.06 C7.12 88.59, 1.89 81.88, 0 66.05 M22.02 88.06 C6.52 88.78, -1.42 78.61, 0 66.05 M0 66.05 C-1.59 54.9, -1.69 42.42, 0 22.02 M0 66.05 C0.74 55.17, 0.51 45.76, 0 22.02 M0 22.02 C-0.48 7.55, 7.79 0.08, 22.02 0 M0 22.02 C1.74 5.08, 7.34 -0.01, 22.02 0" stroke="#1e1e1e" stroke-width="2" fill="none"></path></g><g transform="translate(438.5305635990708 58.53908176318757) rotate(0 20.386405452771328 25.48300681596416)"><text x="0" y="35.716982353255375" font-family="Virgil, Segoe UI Emoji" font-size="40.77281090554267px" fill="#1e1e1e" text-anchor="start" style="white-space: pre;" direction="ltr" dominant-baseline="alphabetic">堆</text></g><g transform="translate(410.79399986358067 213.86408626973991) rotate(0 41.60490908728843 13.001534089777635)"><text x="0" y="18.22295018023233" font-family="Virgil, Segoe UI Emoji" font-size="20.802454543644213px" fill="#1e1e1e" text-anchor="start" style="white-space: pre;" direction="ltr" dominant-baseline="alphabetic">直接内存</text></g><g stroke-linecap="round" transform="translate(16.93410919184595 191.32810442813417) rotate(0 185.48856359483645 35.364172724195186)"><path d="M17.68 0 C124.25 1.45, 237.28 0.01, 353.3 0 C362.12 0.27, 372.88 6.47, 370.98 17.68 C369.52 27.25, 369.49 38.16, 370.98 53.05 C373.34 62.01, 367.19 69.06, 353.3 70.73 C276.46 70.06, 198.6 71.44, 17.68 70.73 C9.18 68.83, 0.06 67.61, 0 53.05 C-2.63 44.1, 2.41 29.91, 0 17.68 C-0.12 2.58, 5.26 -2.39, 17.68 0" stroke="none" stroke-width="0" fill="#ffc9c9"></path><path d="M17.68 0 C132.47 1.54, 250.85 1.62, 353.3 0 M17.68 0 C97.26 1.62, 176.57 2.48, 353.3 0 M353.3 0 C365.03 1.49, 369.72 7.75, 370.98 17.68 M353.3 0 C366.2 -0.88, 369.78 7.61, 370.98 17.68 M370.98 17.68 C370.14 28.16, 372.85 37.89, 370.98 53.05 M370.98 17.68 C371.34 28.44, 372.08 39.54, 370.98 53.05 M370.98 53.05 C370.4 66.82, 365.56 72.57, 353.3 70.73 M370.98 53.05 C370.01 63.31, 364.11 70.92, 353.3 70.73 M353.3 70.73 C264.85 69.73, 173.78 71.14, 17.68 70.73 M353.3 70.73 C279.28 71.09, 205.65 71.32, 17.68 70.73 M17.68 70.73 C6.49 70.98, -0.23 65.53, 0 53.05 M17.68 70.73 C3.67 70.54, 1.6 65.22, 0 53.05 M0 53.05 C1.11 44.59, -0.32 34, 0 17.68 M0 53.05 C-0.34 41.31, 0.21 28.85, 0 17.68 M0 17.68 C1.11 7.57, 6.45 -0.77, 17.68 0 M0 17.68 C-0.56 7.46, 7.03 0.93, 17.68 0" stroke="#1e1e1e" stroke-width="2" fill="none"></path></g><g stroke-linecap="round" transform="translate(227.7323998795115 265.17678631604457) rotate(0 0 0)"><path d="M0 0 C0 0, 0 0, 0 0 C-0.35 -0.1, 0.26 0.15, 0 0 C0 0, 0 0, 0 0 C0.86 1.03, -1.34 -1.91, 0 0 C0 0, 0 0, 0 0 C-2.14 -1.91, -1.28 -2.11, 0 0 C0 0, 0 0, 0 0 C-0.04 0.61, -0.59 -0.28, 0 0" stroke="none" stroke-width="0" fill="#ffec99"></path><path d="M0 0 C0 0, 0 0, 0 0 M0 0 C0 0, 0 0, 0 0 M0 0 C0.07 0.24, -0.35 0.37, 0 0 M0 0 C0.64 0.21, -0.29 -0.19, 0 0 M0 0 C0 0, 0 0, 0 0 M0 0 C0 0, 0 0, 0 0 M0 0 C-0.19 0.52, -0.44 -0.36, 0 0 M0 0 C-0.01 -0.42, 0.27 0.5, 0 0 M0 0 C0 0, 0 0, 0 0 M0 0 C0 0, 0 0, 0 0 M0 0 C-0.12 0.49, 0.22 -0.4, 0 0 M0 0 C0.22 0.61, -0.68 -0.03, 0 0 M0 0 C0 0, 0 0, 0 0 M0 0 C0 0, 0 0, 0 0 M0 0 C0.27 0.18, -0.66 -0.31, 0 0 M0 0 C-0.05 0.34, 0.76 0.41, 0 0" stroke="#f08c00" stroke-width="2" fill="none"></path></g><g transform="translate(291.5266361360559 205.5430409682291) rotate(0 31.203681815466325 13.001534089777635)"><text x="0" y="18.22295018023233" font-family="Virgil, Segoe UI Emoji" font-size="20.802454543644213px" fill="#1e1e1e" text-anchor="start" style="white-space: pre;" direction="ltr" dominant-baseline="alphabetic">方法区</text></g><g stroke-linecap="round" transform="translate(27.33546343177437 206.0631340738467) rotate(0 84.24990915973248 20.975813621845674)"><path d="M10.49 0 C56.69 -3.22, 108.17 -4.79, 158.01 0 C162.78 0.73, 168.23 3.8, 168.5 10.49 C171.69 18.53, 172.3 26.55, 168.5 31.46 C171 35.5, 162.12 39.95, 158.01 41.95 C103.78 43.5, 58.96 45.68, 10.49 41.95 C1.41 42.5, -3.03 36.89, 0 31.46 C1.2 23.66, 1.25 17.57, 0 10.49 C-0.49 2.81, 2.73 1.23, 10.49 0" stroke="none" stroke-width="0" fill="#38d9a9"></path><path d="M10.49 0 C48.81 -1.86, 86.36 -1.41, 158.01 0 M10.49 0 C49.25 1.5, 87.48 1.11, 158.01 0 M158.01 0 C164.8 -1.44, 167.81 5.38, 168.5 10.49 M158.01 0 C165.76 1.28, 167.55 2.85, 168.5 10.49 M168.5 10.49 C169.94 16.25, 167.55 27.06, 168.5 31.46 M168.5 10.49 C168.34 16.26, 167.84 23.09, 168.5 31.46 M168.5 31.46 C169.23 37.68, 164.29 42.72, 158.01 41.95 M168.5 31.46 C167.79 38.59, 164.79 39.83, 158.01 41.95 M158.01 41.95 C121.52 42.31, 85.1 43.58, 10.49 41.95 M158.01 41.95 C115.71 41.49, 73.92 40.24, 10.49 41.95 M10.49 41.95 C2.44 41.78, -0.25 39.63, 0 31.46 M10.49 41.95 C1.71 42.65, 0.22 38.3, 0 31.46 M0 31.46 C1.75 28.35, 1.19 21.28, 0 10.49 M0 31.46 C-0.19 27.46, -0.26 21.59, 0 10.49 M0 10.49 C0.38 4.91, 3.52 -1.57, 10.49 0 M0 10.49 C-2.06 1.9, 5 -0.41, 10.49 0" stroke="#1e1e1e" stroke-width="2" fill="none"></path></g><g transform="translate(49.185409212600575 214.03741360591476) rotate(0 62.39996337890625 13.001534089777635)"><text x="62.39996337890625" y="18.22295018023233" font-family="Virgil, Segoe UI Emoji" font-size="20.802454543644213px" fill="#1e1e1e" text-anchor="middle" style="white-space: pre;" direction="ltr" dominant-baseline="alphabetic">运行时常量池</text></g><g transform="translate(278.0049137145809 231.37275006958288) rotate(0 45.14130414028932 8.060959071168782)"><text x="0" y="11.29824023415016" font-family="Virgil, Segoe UI Emoji" font-size="12.897534513870047px" fill="#1e1e1e" text-anchor="start" style="white-space: pre;" direction="ltr" dominant-baseline="alphabetic">（元空间实现）</text></g></svg>