<svg version="1.1" xmlns="http://www.w3.org/2000/svg" viewBox="0 0 535.9215290104419 252.18495542446948" width="535.9215290104419" height="252.18495542446948">
  <!-- svg-source:excalidraw -->
  
  <defs>
    <style class="style-fonts">
      @font-face {
        font-family: "Virgil";
        src: url("https://excalidraw.com/Virgil.woff2");
      }
      @font-face {
        font-family: "Cascadia";
        src: url("https://excalidraw.com/Cascadia.woff2");
      }
      @font-face {
        font-family: "Assistant";
        src: url("https://excalidraw.com/Assistant-Regular.woff2");
      }
    </style>
    
  </defs>
  <rect x="0" y="0" width="535.9215290104419" height="252.18495542446948" fill="#ffffff"></rect><g stroke-linecap="round" transform="translate(10 13.01436674553554) rotate(0 69.02876941544275 21.100512024213558)"><path d="M10.55 0 C38.28 0.61, 63.25 -1.61, 127.51 0 C133.8 1.37, 140.06 3.68, 138.06 10.55 C141.27 14.64, 141.82 26.38, 138.06 31.65 C138.25 41.25, 135.33 42.43, 127.51 42.2 C80.78 41.5, 38.37 45.69, 10.55 42.2 C1.87 45.34, 2.59 40.45, 0 31.65 C2.49 24.47, -0.94 18.91, 0 10.55 C-2.65 3.64, 3.85 -1.25, 10.55 0" stroke="none" stroke-width="0" fill="#ffec99"></path><path d="M10.55 0 C36.65 0.85, 62.21 0.4, 127.51 0 M10.55 0 C42.37 -1.33, 75.37 -0.99, 127.51 0 M127.51 0 C135.67 -1.01, 136.76 4.73, 138.06 10.55 M127.51 0 C133.33 1.77, 140 1.79, 138.06 10.55 M138.06 10.55 C139.06 17.24, 136.07 21.25, 138.06 31.65 M138.06 10.55 C138.49 14.15, 138.36 18.51, 138.06 31.65 M138.06 31.65 C137.64 39.2, 135.67 43, 127.51 42.2 M138.06 31.65 C137.81 38.06, 134.33 42.61, 127.51 42.2 M127.51 42.2 C94.18 43.75, 60.8 42.76, 10.55 42.2 M127.51 42.2 C85.64 41.62, 45.23 42.38, 10.55 42.2 M10.55 42.2 C4.12 43.29, 0.87 38.68, 0 31.65 M10.55 42.2 C5.05 40.85, 2.12 40.61, 0 31.65 M0 31.65 C-1 24.54, 2.11 13.7, 0 10.55 M0 31.65 C0.64 26.2, 0.88 22.95, 0 10.55 M0 10.55 C1.98 3.44, 2.29 -1.72, 10.55 0 M0 10.55 C2.16 2.39, 5.64 1.54, 10.55 0" stroke="#1e1e1e" stroke-width="1" fill="none"></path></g><g transform="translate(33.82877239550851 22.811037970575313) rotate(0 45.199997019934244 11.303840799173763)"><text x="45.19999701993426" y="15.843463264121947" font-family="Virgil, Segoe UI Emoji" font-size="18.08614527867802px" fill="#1e1e1e" text-anchor="middle" style="white-space: pre;" direction="ltr" dominant-baseline="alphabetic">程序计数器</text></g><g stroke-linecap="round" transform="translate(11.205641828597436 66.36849531763569) rotate(0 68.42593470251023 18.086145278678025)"><path d="M9.04 0 C44.88 2.53, 84.2 1.31, 127.81 0 C134.56 1.89, 138.87 6.03, 136.85 9.04 C137.35 15.46, 137.89 17.43, 136.85 27.13 C139.98 36.11, 136.1 34.7, 127.81 36.17 C97.23 40.59, 72.53 39.22, 9.04 36.17 C2.16 33.51, -1.1 35.37, 0 27.13 C-2.29 22.49, 0.41 16.51, 0 9.04 C2.51 0.95, 1.4 -3.57, 9.04 0" stroke="none" stroke-width="0" fill="#ffec99"></path><path d="M9.04 0 C52.94 0.29, 98.55 -2.18, 127.81 0 M9.04 0 C35.53 0.06, 60.24 1.17, 127.81 0 M127.81 0 C132.79 1.54, 138.55 1.51, 136.85 9.04 M127.81 0 C133.39 -0.96, 134.97 4.27, 136.85 9.04 M136.85 9.04 C135.09 13.41, 138.13 22.44, 136.85 27.13 M136.85 9.04 C136.76 13.13, 137.45 17.1, 136.85 27.13 M136.85 27.13 C136.63 32.62, 133.65 36.53, 127.81 36.17 M136.85 27.13 C136.55 33.82, 134.34 36.45, 127.81 36.17 M127.81 36.17 C85.54 34.56, 39.84 34.98, 9.04 36.17 M127.81 36.17 C90 37.86, 52.02 37.31, 9.04 36.17 M9.04 36.17 C4.35 35, 1.84 34.83, 0 27.13 M9.04 36.17 C5.16 34.42, 0.71 31.83, 0 27.13 M0 27.13 C-1.6 20.82, 0.02 15.34, 0 9.04 M0 27.13 C0.73 23.08, -0.72 18.33, 0 9.04 M0 9.04 C1.88 2.03, 4.86 1.34, 9.04 0 M0 9.04 C-2.04 1.75, 2.66 1.93, 9.04 0" stroke="#1e1e1e" stroke-width="1" fill="none"></path></g><g transform="translate(20.952936105861795 73.15079979713994) rotate(0 58.67864042524593 11.303840799173763)"><text x="58.678640425245916" y="15.84346326412195" font-family="Virgil, Segoe UI Emoji" font-size="18.086145278678025px" fill="#1e1e1e" text-anchor="middle" style="white-space: pre;" direction="ltr" dominant-baseline="alphabetic">Java虚拟机栈</text></g><g stroke-linecap="round" transform="translate(12.41142164353272 113.39248684083238) rotate(0 68.1244897487764 18.236853956911144)"><path d="M9.12 0 C49.74 1.8, 90.95 2.92, 127.13 0 C130.55 3.56, 138.57 3.23, 136.25 9.12 C139.17 18.59, 138.39 21.32, 136.25 27.36 C134.22 34.8, 135.37 34.83, 127.13 36.47 C80.59 34.85, 34.66 39.72, 9.12 36.47 C1.69 35.25, -1.09 30.78, 0 27.36 C2.26 19.94, -1.5 13.04, 0 9.12 C-3.09 2.22, 3.04 -0.9, 9.12 0" stroke="none" stroke-width="0" fill="#ffec99"></path><path d="M9.12 0 C48.1 0.12, 89.4 2.07, 127.13 0 M9.12 0 C38.03 0.06, 68.83 -1.47, 127.13 0 M127.13 0 C132.82 -0.83, 134.62 4.13, 136.25 9.12 M127.13 0 C134.1 -2.19, 134.94 1.01, 136.25 9.12 M136.25 9.12 C134.81 13.75, 134.61 16.15, 136.25 27.36 M136.25 9.12 C136.25 14.81, 136.27 21.17, 136.25 27.36 M136.25 27.36 C135.99 34.01, 133.65 36.72, 127.13 36.47 M136.25 27.36 C137.74 33.93, 133.56 37.67, 127.13 36.47 M127.13 36.47 C102.72 35.85, 79.4 36.27, 9.12 36.47 M127.13 36.47 C85.99 35.88, 44.44 37.31, 9.12 36.47 M9.12 36.47 C4.91 34.95, 0.62 32.28, 0 27.36 M9.12 36.47 C4.4 38.72, -1.56 31.63, 0 27.36 M0 27.36 C-1.45 23.34, 1.16 17.83, 0 9.12 M0 27.36 C0.97 21.51, 0.95 17.16, 0 9.12 M0 9.12 C-1.78 1.94, 2.73 1.68, 9.12 0 M0 9.12 C0.18 5.15, 1.8 -0.48, 9.12 0" stroke="#1e1e1e" stroke-width="1" fill="none"></path></g><g transform="translate(34.46332696612819 121.1980874048164) rotate(0 45.199997019934244 11.303840799173765)"><text x="45.19999701993426" y="15.843463264121947" font-family="Virgil, Segoe UI Emoji" font-size="18.08614527867802px" fill="#1e1e1e" text-anchor="middle" style="white-space: pre;" direction="ltr" dominant-baseline="alphabetic">本地方法栈</text></g><g stroke-linecap="round" transform="translate(305.1495991869889 10) rotate(0 109.02424529281643 69.33021436917657)"><path d="M32 0 C83.66 1.24, 142.96 -2.13, 186.05 0 C209.95 0.79, 218.27 13.8, 218.05 32 C216.86 61.9, 221.06 87.41, 218.05 106.66 C221.18 130.58, 209.14 137.81, 186.05 138.66 C149.87 139.14, 115.31 137.71, 32 138.66 C10.79 139, -1.25 130.5, 0 106.66 C-2.49 87.73, 0.6 69.53, 0 32 C2.85 12.72, 11.98 1.42, 32 0" stroke="none" stroke-width="0" fill="#a5d8ff"></path><path d="M32 0 C70.94 -2.17, 113.1 -1.92, 186.05 0 M32 0 C89.86 0.74, 147.29 1.7, 186.05 0 M186.05 0 C208.15 -1.9, 216.91 8.9, 218.05 32 M186.05 0 C205.15 1.85, 219.51 8.66, 218.05 32 M218.05 32 C217.84 59.32, 218.12 84.17, 218.05 106.66 M218.05 32 C217.85 52.66, 218.2 72.87, 218.05 106.66 M218.05 106.66 C219.34 128.43, 207.68 139.7, 186.05 138.66 M218.05 106.66 C215.99 126.45, 205.81 139.14, 186.05 138.66 M186.05 138.66 C139.48 140, 90.74 140.46, 32 138.66 M186.05 138.66 C149.83 139.19, 112.05 139.37, 32 138.66 M32 138.66 C11.85 140.61, -1.35 126.42, 0 106.66 M32 138.66 C10.91 138.91, 1.52 126.19, 0 106.66 M0 106.66 C-0.56 76.29, -2.2 50.24, 0 32 M0 106.66 C-1.58 87.38, -0.84 70.03, 0 32 M0 32 C0.16 12.5, 9.59 -0.41, 32 0 M0 32 C0.88 11.95, 10.77 0.46, 32 0" stroke="#1e1e1e" stroke-width="1" fill="none"></path></g><g stroke-linecap="round" transform="translate(344.2920111214711 66.06385171019316) rotate(0 60.08104680284998 17.893856759064274)"><path d="M8.95 0 C50.52 -1.63, 90.02 -1.03, 111.22 0 C117.4 3.13, 123.12 5.25, 120.16 8.95 C121.92 12.11, 122.79 20.53, 120.16 26.84 C121.92 31.95, 114.52 34.69, 111.22 35.79 C73.18 32.51, 37.43 35.5, 8.95 35.79 C1.73 38.29, -2.06 31.19, 0 26.84 C0.28 22.44, 2.83 21.49, 0 8.95 C1.31 4.4, 2.31 3.07, 8.95 0" stroke="none" stroke-width="0" fill="#b2f2bb"></path><path d="M8.95 0 C46.63 -0.38, 83.44 2.36, 111.22 0 M8.95 0 C31.11 0.97, 55.3 -0.53, 111.22 0 M111.22 0 C116.05 -1.76, 118.22 4.59, 120.16 8.95 M111.22 0 C118.64 -2, 121.33 0.73, 120.16 8.95 M120.16 8.95 C120.93 13.75, 119.72 18.78, 120.16 26.84 M120.16 8.95 C120.34 14.74, 120.72 20.52, 120.16 26.84 M120.16 26.84 C120.46 33.85, 115.39 34.44, 111.22 35.79 M120.16 26.84 C118.59 33.29, 117.39 38, 111.22 35.79 M111.22 35.79 C77.43 37.57, 42.47 38.08, 8.95 35.79 M111.22 35.79 C72.27 34.43, 33.3 35.98, 8.95 35.79 M8.95 35.79 C1.63 34.22, 0.21 33.02, 0 26.84 M8.95 35.79 C4.51 33.99, 2.08 34.29, 0 26.84 M0 26.84 C-1.53 21.38, -0.87 14.21, 0 8.95 M0 26.84 C0.02 21.03, 0.23 14.53, 0 8.95 M0 8.95 C-1.08 2.57, 3.75 1.11, 8.95 0 M0 8.95 C0.1 3.44, 4.19 1.29, 8.95 0" stroke="#1e1e1e" stroke-width="1" fill="none"></path></g><g transform="translate(351.8782895714022 73.23558373116333) rotate(0 54.23999642392113 11.303840799173763)"><text x="54.239996423921106" y="15.84346326412195" font-family="Virgil, Segoe UI Emoji" font-size="18.086145278678025px" fill="#1e1e1e" text-anchor="middle" style="white-space: pre;" direction="ltr" dominant-baseline="alphabetic">字符串常量池</text></g><g stroke-linecap="round" transform="translate(10.475955282183463 158.63955609658083) rotate(0 257.7227868641292 41.77269966394432)"><path d="M20.89 0 C165.59 0.56, 311.41 0.17, 494.56 0 C507.01 -2.03, 516.81 9.13, 515.45 20.89 C517.86 30.66, 513.44 41.03, 515.45 62.66 C517.65 75.23, 507.26 82.46, 494.56 83.55 C386.82 85.01, 279.27 83.18, 20.89 83.55 C3.39 80.45, -0.82 76.58, 0 62.66 C0.72 52.59, -1.26 42.75, 0 20.89 C1.97 6.91, 8.19 -2.95, 20.89 0" stroke="none" stroke-width="0" fill="#ffd8a8"></path><path d="M20.89 0 C137.48 -1.95, 255.04 -2.5, 494.56 0 M20.89 0 C188.5 1.61, 356.18 2.36, 494.56 0 M494.56 0 C509.75 -1.74, 516.46 5, 515.45 20.89 M494.56 0 C508.01 0.6, 516.74 7.89, 515.45 20.89 M515.45 20.89 C515.69 32.7, 515.91 45.48, 515.45 62.66 M515.45 20.89 C515.87 34.44, 514.82 46.29, 515.45 62.66 M515.45 62.66 C514.08 77, 508.67 85.47, 494.56 83.55 M515.45 62.66 C516.14 77.83, 509.49 83.54, 494.56 83.55 M494.56 83.55 C321.57 86.31, 146.42 85.76, 20.89 83.55 M494.56 83.55 C379.58 85.25, 265.25 85.64, 20.89 83.55 M20.89 83.55 C8.29 81.98, 1.81 77.88, 0 62.66 M20.89 83.55 C9.24 83.46, -1.41 74.61, 0 62.66 M0 62.66 C1.55 44.43, -0.89 29.44, 0 20.89 M0 62.66 C-0.57 46.41, 0.35 31.13, 0 20.89 M0 20.89 C0.09 7.36, 8.01 1.12, 20.89 0 M0 20.89 C1.93 5.26, 9.24 1.49, 20.89 0" stroke="#1e1e1e" stroke-width="1" fill="none"></path></g><g transform="translate(472.3579633316889 24.267681053294893) rotate(0 17.723195663385468 22.155527966380582)"><text x="0" y="31.053187997679018" font-family="Virgil, Segoe UI Emoji" font-size="35.44884474620893px" fill="#1e1e1e" text-anchor="start" style="white-space: pre;" direction="ltr" dominant-baseline="alphabetic">堆</text></g><g transform="translate(428.74266368896065 186.3716639220656) rotate(0 46.394848674625564 14.503319078993385)"><text x="0" y="20.327852021117124" font-family="Virgil, Segoe UI Emoji" font-size="23.205310526389415px" fill="#1e1e1e" text-anchor="start" style="white-space: pre;" direction="ltr" dominant-baseline="alphabetic">本地内存</text></g><g stroke-linecap="round" transform="translate(19.994983203706 169.39611128799353) rotate(0 118.80219974379483 30.746446973752654)"><path d="M15.37 0 C91.66 3.79, 164.05 4.65, 222.23 0 C235.07 1.76, 236.75 2.46, 237.6 15.37 C236.72 22.57, 235.29 32.06, 237.6 46.12 C237.94 55.12, 234.99 59.43, 222.23 61.49 C168.7 58.65, 115.83 61.18, 15.37 61.49 C7.18 62.81, 1.42 55.7, 0 46.12 C0.93 31.32, -2.41 22.8, 0 15.37 C1.71 3.84, 8.01 3.07, 15.37 0" stroke="none" stroke-width="0" fill="#96f2d7"></path><path d="M15.37 0 C58.86 -1.72, 104.16 -2.43, 222.23 0 M15.37 0 C94.52 0.73, 172.59 1.83, 222.23 0 M222.23 0 C233.61 0.8, 237.39 4.58, 237.6 15.37 M222.23 0 C232.27 0.41, 237.31 5.79, 237.6 15.37 M237.6 15.37 C238.07 25.57, 238.68 33.38, 237.6 46.12 M237.6 15.37 C237.49 23.49, 237.7 30.23, 237.6 46.12 M237.6 46.12 C238.48 56.36, 233.82 60.32, 222.23 61.49 M237.6 46.12 C239.72 58.3, 234.63 59.74, 222.23 61.49 M222.23 61.49 C155.52 61.38, 83.95 62.77, 15.37 61.49 M222.23 61.49 C158.77 60.63, 94.59 60.02, 15.37 61.49 M15.37 61.49 C3.9 59.78, 1.88 55.39, 0 46.12 M15.37 61.49 C7.24 63.03, -2.04 55.11, 0 46.12 M0 46.12 C1.57 36.29, -0.67 29.39, 0 15.37 M0 46.12 C0.51 35.74, 0.82 23.51, 0 15.37 M0 15.37 C1.98 6.42, 5.23 1.43, 15.37 0 M0 15.37 C0.51 5.27, 7.12 1.89, 15.37 0" stroke="#1e1e1e" stroke-width="1" fill="none"></path></g><g stroke-linecap="round" transform="translate(27.00212007445498 182.7888101251133) rotate(0 59.28746228143194 18.236867755544942)"><path d="M9.12 0 C31.92 2.05, 60.59 0.68, 109.46 0 C114.68 -2.66, 117.47 5.25, 118.57 9.12 C116.04 14.01, 118.77 17.55, 118.57 27.36 C121.08 31.37, 113.92 32.91, 109.46 36.47 C87.08 39.32, 68.55 37.79, 9.12 36.47 C4.46 35.81, 3.07 35.4, 0 27.36 C-2.04 22.25, 1.45 15.3, 0 9.12 C2.88 6.11, 4.07 -0.46, 9.12 0" stroke="none" stroke-width="0" fill="#b2f2bb"></path><path d="M9.12 0 C41.34 -1.37, 78.69 1.84, 109.46 0 M9.12 0 C30.27 1.24, 52.39 1.38, 109.46 0 M109.46 0 C115.32 -0.54, 118.39 3.4, 118.57 9.12 M109.46 0 C115.24 0.66, 119.08 3.32, 118.57 9.12 M118.57 9.12 C119.57 14.13, 117.39 21.17, 118.57 27.36 M118.57 9.12 C118.87 15.47, 118.99 20.82, 118.57 27.36 M118.57 27.36 C119.91 32.26, 117.38 38.15, 109.46 36.47 M118.57 27.36 C120.72 31.68, 116.25 35.14, 109.46 36.47 M109.46 36.47 C71.85 36.01, 37.59 37.12, 9.12 36.47 M109.46 36.47 C88.19 37.08, 64.34 36.26, 9.12 36.47 M9.12 36.47 C4.92 35.49, 1.84 34.77, 0 27.36 M9.12 36.47 C1 35.21, -0.36 35.37, 0 27.36 M0 27.36 C-0.54 22.43, 0.85 16.2, 0 9.12 M0 27.36 C0.67 20.85, 0.81 16.27, 0 9.12 M0 9.12 C0.11 4.47, 3.48 0.12, 9.12 0 M0 9.12 C2 4.93, 4.49 -0.94, 9.12 0" stroke="#1e1e1e" stroke-width="1" fill="none"></path></g><g transform="translate(32.049585931965794 190.5944244877311) rotate(0 54.2399964239211 11.303840799173763)"><text x="54.239996423921106" y="15.84346326412195" font-family="Virgil, Segoe UI Emoji" font-size="18.086145278678025px" fill="#1e1e1e" text-anchor="middle" style="white-space: pre;" direction="ltr" dominant-baseline="alphabetic">运行时常量池</text></g><g stroke-linecap="round" transform="translate(183.78017470850898 231.8567246175396) rotate(0 0 0)"><path d="M0 0 C0 0, 0 0, 0 0 C-0.85 -0.77, -0.68 -1.67, 0 0 C0 0, 0 0, 0 0 C-1.95 -0.51, 0 -0.56, 0 0 C0 0, 0 0, 0 0 C-0.03 0.77, -1.86 -1.33, 0 0 C0 0, 0 0, 0 0 C-1.1 1.99, -0.42 -2.23, 0 0" stroke="none" stroke-width="0" fill="#ffec99"></path><path d="M0 0 C0 0, 0 0, 0 0 M0 0 C0 0, 0 0, 0 0 M0 0 C-0.09 0.19, 0.15 0.08, 0 0 M0 0 C0.5 0.17, 0.12 0.4, 0 0 M0 0 C0 0, 0 0, 0 0 M0 0 C0 0, 0 0, 0 0 M0 0 C0.62 -0.51, 0.21 -0.39, 0 0 M0 0 C0.45 0.75, -0.52 -0.6, 0 0 M0 0 C0 0, 0 0, 0 0 M0 0 C0 0, 0 0, 0 0 M0 0 C-0.59 -0.37, -0.1 0.56, 0 0 M0 0 C0.06 0.7, -0.41 -0.16, 0 0 M0 0 C0 0, 0 0, 0 0 M0 0 C0 0, 0 0, 0 0 M0 0 C0.58 0.55, 0.42 -0.27, 0 0 M0 0 C-0.43 0.29, 0.46 -0.35, 0 0" stroke="#1e1e1e" stroke-width="1" fill="none"></path></g><g transform="translate(169.43739785974594 180.5914540833856) rotate(0 27.126000941074096 11.303840799173763)"><text x="0" y="15.84346326412195" font-family="Virgil, Segoe UI Emoji" font-size="18.086145278678025px" fill="#1e1e1e" text-anchor="start" style="white-space: pre;" direction="ltr" dominant-baseline="alphabetic">方法区</text></g><g transform="translate(154.20359857021515 203.6280466382216) rotate(0 43.910217505780906 7.845417623641161)"><text x="0" y="10.996137341295448" font-family="Virgil, Segoe UI Emoji" font-size="12.552668197825856px" fill="#1e1e1e" text-anchor="start" style="white-space: pre;" direction="ltr" dominant-baseline="alphabetic">（元空间实现）</text></g><g stroke-linecap="round" transform="translate(270.0859516505418 169.26344160571034) rotate(0 75.7545454925417 30.746446973752654)"><path d="M15.37 0 C57.92 -1.92, 102.76 1.07, 136.14 0 C145.13 2.51, 149.45 3.51, 151.51 15.37 C151.03 20.65, 153.88 29.78, 151.51 46.12 C152.82 57.79, 145.72 64.56, 136.14 61.49 C90.35 60.12, 50.83 63.95, 15.37 61.49 C3.84 64.38, 3.07 57.4, 0 46.12 C-0.4 33.76, -2.15 26.11, 0 15.37 C-3.35 4.3, 8.67 -0.12, 15.37 0" stroke="none" stroke-width="0" fill="#ffc9c9"></path><path d="M15.37 0 C49.91 -0.9, 82.31 -0.87, 136.14 0 M15.37 0 C53.99 -0.23, 92.82 -0.13, 136.14 0 M136.14 0 C146.69 1.04, 149.72 3.78, 151.51 15.37 M136.14 0 C144.81 0.48, 151.72 7.34, 151.51 15.37 M151.51 15.37 C151.67 26.87, 150.5 37.53, 151.51 46.12 M151.51 15.37 C152.1 26.6, 152.39 39.95, 151.51 46.12 M151.51 46.12 C150.16 54.8, 146.6 61.71, 136.14 61.49 M151.51 46.12 C153.03 54.57, 148.46 62.98, 136.14 61.49 M136.14 61.49 C86.24 62.63, 38.79 62.6, 15.37 61.49 M136.14 61.49 C91.66 61.67, 47.57 61.75, 15.37 61.49 M15.37 61.49 C4.05 61.08, 0.76 57.48, 0 46.12 M15.37 61.49 C5.23 61.95, 1.21 57.66, 0 46.12 M0 46.12 C1.52 34.42, 1.65 22.96, 0 15.37 M0 46.12 C0.36 36.3, -0.83 27.67, 0 15.37 M0 15.37 C1.2 4.21, 6.87 1.44, 15.37 0 M0 15.37 C1.13 4.58, 3.42 -0.7, 15.37 0" stroke="#1e1e1e" stroke-width="1" fill="none"></path></g><g transform="translate(310.9405032465992 189.1025460013798) rotate(0 34.899993896484375 10.907342578083195)"><text x="34.899993896484375" y="15.287731357441407" font-family="Virgil, Segoe UI Emoji" font-size="17.45174812493311px" fill="#1e1e1e" text-anchor="middle" style="white-space: pre;" direction="ltr" dominant-baseline="alphabetic">直接内存</text></g><g stroke-linecap="round" transform="translate(156.67489731307336 12.621242609445659) rotate(0 69.02876941544272 21.100512024213558)"><path d="M10.55 0 C54.41 2.76, 89.28 -0.29, 127.51 0 C137.29 -0.54, 138.07 1.22, 138.06 10.55 C137.98 15.86, 136.91 22.24, 138.06 31.65 C139.65 37.95, 135.84 45.21, 127.51 42.2 C82.04 44.82, 40.58 41.45, 10.55 42.2 C0.66 39.67, 0.27 41.44, 0 31.65 C1.7 25.79, 3.19 13.31, 0 10.55 C-0.02 0.08, 4.48 -0.19, 10.55 0" stroke="none" stroke-width="0" fill="#ffd43b"></path><path d="M10.55 0 C43.44 -1.71, 78.46 -1.39, 127.51 0 M10.55 0 C57.8 -0.14, 102.5 -0.83, 127.51 0 M127.51 0 C132.59 -1.49, 136.51 4.67, 138.06 10.55 M127.51 0 C132.73 0.81, 139.68 1.28, 138.06 10.55 M138.06 10.55 C136.39 17.08, 139.57 23.72, 138.06 31.65 M138.06 10.55 C138.3 16.39, 138.83 20.75, 138.06 31.65 M138.06 31.65 C136.69 37.26, 134.68 42.92, 127.51 42.2 M138.06 31.65 C137.51 36.56, 135.31 43.51, 127.51 42.2 M127.51 42.2 C82.92 41.8, 36.17 43.72, 10.55 42.2 M127.51 42.2 C100.97 41.3, 73.22 41.9, 10.55 42.2 M10.55 42.2 C2.84 40.53, -0.69 38.59, 0 31.65 M10.55 42.2 C3.66 42.72, 1.45 36.89, 0 31.65 M0 31.65 C-0.15 23.71, 0.63 14.88, 0 10.55 M0 31.65 C0.32 24.22, 0.54 15.54, 0 10.55 M0 10.55 C-1.22 1.64, 5.19 -0.67, 10.55 0 M0 10.55 C-0.7 3.62, 1.34 2.28, 10.55 0" stroke="#1e1e1e" stroke-width="1" fill="none"></path></g><g transform="translate(180.50366970858192 22.41791383448546) rotate(0 45.199997019934244 11.303840799173763)"><text x="45.19999701993426" y="15.843463264121947" font-family="Virgil, Segoe UI Emoji" font-size="18.08614527867802px" fill="#1e1e1e" text-anchor="middle" style="white-space: pre;" direction="ltr" dominant-baseline="alphabetic">程序计数器</text></g><g stroke-linecap="round" transform="translate(157.88053914167068 65.97537118154582) rotate(0 68.42593470251026 18.086145278678025)"><path d="M9.04 0 C57.78 -0.59, 101.03 -2.35, 127.81 0 C130.32 1.61, 139.9 2.76, 136.85 9.04 C138.18 14.32, 137.91 23.65, 136.85 27.13 C138.95 30.67, 132.19 32.6, 127.81 36.17 C77.52 33.77, 33.2 39.06, 9.04 36.17 C5.8 36.46, -1.76 34.89, 0 27.13 C-0.31 17.54, 0.58 13.99, 0 9.04 C0.24 3.35, 1.89 1.15, 9.04 0" stroke="none" stroke-width="0" fill="#ffd43b"></path><path d="M9.04 0 C38.3 -1.02, 63.9 2.45, 127.81 0 M9.04 0 C43.39 0.1, 78.92 1.42, 127.81 0 M127.81 0 C132.27 0.7, 138.26 1.07, 136.85 9.04 M127.81 0 C133.49 -1.52, 135.23 1.25, 136.85 9.04 M136.85 9.04 C135.77 16.31, 136.92 20.98, 136.85 27.13 M136.85 9.04 C136.34 15.54, 137.02 23.64, 136.85 27.13 M136.85 27.13 C136.37 31.31, 134.51 37.31, 127.81 36.17 M136.85 27.13 C138.84 34.43, 132.91 36.84, 127.81 36.17 M127.81 36.17 C90.41 38.68, 54.19 38.66, 9.04 36.17 M127.81 36.17 C91.87 36.04, 56.27 36.83, 9.04 36.17 M9.04 36.17 C3.14 36.62, 1.26 31.6, 0 27.13 M9.04 36.17 C5.07 34.08, 0.64 32.77, 0 27.13 M0 27.13 C1.32 22.83, 1.03 16.64, 0 9.04 M0 27.13 C-0.68 19.98, 0.63 14.21, 0 9.04 M0 9.04 C-0.61 3.1, 1.12 1.98, 9.04 0 M0 9.04 C1.15 4.22, 3.43 1.87, 9.04 0" stroke="#1e1e1e" stroke-width="1" fill="none"></path></g><g transform="translate(167.62783341893498 72.75767566105009) rotate(0 58.67864042524593 11.303840799173763)"><text x="58.678640425245916" y="15.84346326412195" font-family="Virgil, Segoe UI Emoji" font-size="18.086145278678025px" fill="#1e1e1e" text-anchor="middle" style="white-space: pre;" direction="ltr" dominant-baseline="alphabetic">Java虚拟机栈</text></g><g stroke-linecap="round" transform="translate(159.08631895660596 112.99936270474248) rotate(0 68.1244897487764 18.236853956911144)"><path d="M9.12 0 C39.25 2.96, 79.47 1.1, 127.13 0 C134.25 -1.31, 139.4 4.64, 136.25 9.12 C138.28 11.95, 134.87 16.06, 136.25 27.36 C139.83 30.29, 133.42 33.62, 127.13 36.47 C102.8 38.39, 71.14 39.83, 9.12 36.47 C5.15 39.69, -2.42 33.42, 0 27.36 C0.13 23.93, -1.11 20.94, 0 9.12 C-2.08 0.13, 1.68 -0.25, 9.12 0" stroke="none" stroke-width="0" fill="#ffd43b"></path><path d="M9.12 0 C34.72 -2.55, 58.99 -3.02, 127.13 0 M9.12 0 C34.94 -0.33, 63.05 -1.65, 127.13 0 M127.13 0 C132.91 -1.32, 134.84 1.51, 136.25 9.12 M127.13 0 C133.81 1.9, 137.57 1.48, 136.25 9.12 M136.25 9.12 C137.96 17.09, 136.97 21.57, 136.25 27.36 M136.25 9.12 C136.04 12.45, 136.57 17.99, 136.25 27.36 M136.25 27.36 C137.97 34.54, 132.4 37.06, 127.13 36.47 M136.25 27.36 C136.33 32.29, 135.5 34.92, 127.13 36.47 M127.13 36.47 C83.91 37.43, 41.89 36.57, 9.12 36.47 M127.13 36.47 C101.62 36.64, 76.62 35.64, 9.12 36.47 M9.12 36.47 C4.83 34.65, 0.56 33.1, 0 27.36 M9.12 36.47 C3.36 36.98, -0.39 35.17, 0 27.36 M0 27.36 C0.78 21.76, -0.61 12.51, 0 9.12 M0 27.36 C-0.43 23.63, -1.01 20.73, 0 9.12 M0 9.12 C1 4.09, 3.4 1.62, 9.12 0 M0 9.12 C2.01 1.03, 3.1 1.76, 9.12 0" stroke="#1e1e1e" stroke-width="1" fill="none"></path></g><g transform="translate(181.1382242792016 120.80496326872652) rotate(0 45.199997019934244 11.303840799173765)"><text x="45.19999701993426" y="15.843463264121947" font-family="Virgil, Segoe UI Emoji" font-size="18.08614527867802px" fill="#1e1e1e" text-anchor="middle" style="white-space: pre;" direction="ltr" dominant-baseline="alphabetic">本地方法栈</text></g></svg>